<svg xmlns="http://www.w3.org/2000/svg" viewBox="0 0 1920 1080" width="1920" height="1080" preserveAspectRatio="xMidYMid meet" style="width: 100%; height: 100%; transform: translate3d(0px, 0px, 0px);"><defs><clipPath id="__lottie_element_179"><rect width="1920" height="1080" x="0" y="0"></rect></clipPath></defs><g clip-path="url(#__lottie_element_179)"><g transform="matrix(0.9759271144866943,0,0,0.9759271144866943,809.918701171875,844.1185302734375)" opacity="1" style="display: block;"><g opacity="1" transform="matrix(1,0,0,1,153.68600463867188,22.08099937438965)"><path fill="rgb(226,210,255)" fill-opacity="1" d=" M153.43600463867188,-0.0010000000474974513 C153.43600463867188,12.055999755859375 84.74099731445312,21.83099937438965 -0.0010000000474974513,21.83099937438965 C-84.74099731445312,21.83099937438965 -153.43600463867188,12.055999755859375 -153.43600463867188,-0.0010000000474974513 C-153.43600463867188,-12.057999610900879 -84.74099731445312,-21.83099937438965 -0.0010000000474974513,-21.83099937438965 C84.74099731445312,-21.83099937438965 153.43600463867188,-12.057999610900879 153.43600463867188,-0.0010000000474974513z"></path></g></g><g transform="matrix(1,0,0,1,1182.1549072265625,287.31982421875)" opacity="1" style="display: block;"><g opacity="1" transform="matrix(1,0,0,1,67.09700012207031,67.09700012207031)"><path stroke-linecap="butt" stroke-linejoin="miter" fill-opacity="0" stroke-miterlimit="10" stroke="rgb(226,210,255)" stroke-opacity="1" stroke-width="17.102" d=" M24.343000411987305,0 C24.343000411987305,13.444000244140625 13.444000244140625,24.341999053955078 0,24.341999053955078 C-13.444000244140625,24.341999053955078 -24.343000411987305,13.444000244140625 -24.343000411987305,0 C-24.343000411987305,-13.444000244140625 -13.444000244140625,-24.341999053955078 0,-24.341999053955078 C13.444000244140625,-24.341999053955078 24.343000411987305,-13.444000244140625 24.343000411987305,0z"></path></g></g><g transform="matrix(1,0,0,1,1249.0040283203125,594.3181762695312)" opacity="1" style="display: block;"><g opacity="1" transform="matrix(1,0,0,1,8.723999977111816,33.15999984741211)"><path fill="rgb(226,210,255)" fill-opacity="1" d=" M-8.473999977111816,-32.90999984741211 C-8.473999977111816,-32.90999984741211 8.473999977111816,-32.90999984741211 8.473999977111816,-32.90999984741211 C8.473999977111816,-32.90999984741211 8.473999977111816,32.90999984741211 8.473999977111816,32.90999984741211 C8.473999977111816,32.90999984741211 -8.473999977111816,32.90999984741211 -8.473999977111816,32.90999984741211 C-8.473999977111816,32.90999984741211 -8.473999977111816,-32.90999984741211 -8.473999977111816,-32.90999984741211z"></path></g></g><g transform="matrix(1,0,0,1,1224.5679931640625,618.753173828125)" opacity="1" style="display: block;"><g opacity="1" transform="matrix(1,0,0,1,33.15999984741211,8.725000381469727)"><path fill="rgb(226,210,255)" fill-opacity="1" d=" M32.90999984741211,8.475000381469727 C32.90999984741211,8.475000381469727 -32.90999984741211,8.475000381469727 -32.90999984741211,8.475000381469727 C-32.90999984741211,8.475000381469727 -32.90999984741211,-8.475000381469727 -32.90999984741211,-8.475000381469727 C-32.90999984741211,-8.475000381469727 32.90999984741211,-8.475000381469727 32.90999984741211,-8.475000381469727 C32.90999984741211,-8.475000381469727 32.90999984741211,8.475000381469727 32.90999984741211,8.475000381469727z"></path></g></g><g transform="matrix(1,0,0,1,608.9150390625,672.485107421875)" opacity="1" style="display: block;"><g opacity="1" transform="matrix(1,0,0,1,57.805999755859375,57.805999755859375)"><path stroke-linecap="butt" stroke-linejoin="miter" fill-opacity="0" stroke-miterlimit="10" stroke="rgb(226,210,255)" stroke-opacity="1" stroke-width="17.102" d=" M15.050999641418457,0 C15.050999641418457,8.312999725341797 8.312999725341797,15.050999641418457 0,15.050999641418457 C-8.312000274658203,15.050999641418457 -15.050999641418457,8.312999725341797 -15.050999641418457,0 C-15.050999641418457,-8.312999725341797 -8.312000274658203,-15.050999641418457 0,-15.050999641418457 C8.312999725341797,-15.050999641418457 15.050999641418457,-8.312999725341797 15.050999641418457,0z"></path></g></g><g transform="matrix(1,0,0,1,699.35302734375,187.8931884765625)" opacity="1" style="display: block;"><g opacity="1" transform="matrix(1,0,0,1,76.3499984741211,61.29600143432617)"><path stroke-linecap="butt" stroke-linejoin="miter" fill-opacity="0" stroke-miterlimit="10" stroke="rgb(226,210,255)" stroke-opacity="1" stroke-width="17.102" d=" M-33.595001220703125,0 C-33.595001220703125,0 -17.27400016784668,-18.541000366210938 1.2669999599456787,0 C19.808000564575195,18.541000366210938 33.595001220703125,0 33.595001220703125,0"></path></g></g><g transform="matrix(1,0,0,1,928.2780151367188,509.4512939453125)" opacity="1" style="display: block;"><g opacity="1" transform="matrix(1,0,0,1,115.30000305175781,100.94200134277344)"><path fill="rgb(226,210,255)" fill-opacity="1" d=" M115.05000305175781,-100.69200134277344 C115.05000305175781,-100.69200134277344 115.05000305175781,77.01499938964844 115.05000305175781,77.01499938964844 C115.05000305175781,77.01499938964844 91.37100219726562,100.69200134277344 91.37100219726562,100.69200134277344 C91.37100219726562,100.69200134277344 -115.05000305175781,100.69200134277344 -115.05000305175781,100.69200134277344 C-115.05000305175781,100.69200134277344 108.86900329589844,85.29100036621094 115.05000305175781,-100.69200134277344z"></path></g></g><g transform="matrix(1,0,0,1,749.1380004882812,401.5653076171875)" opacity="1" style="display: block;"><g opacity="1" transform="matrix(1,0,0,1,210.76699829101562,158.13800048828125)"><path fill="rgb(102,0,255)" fill-opacity="1" d=" M171.0449981689453,-157.88800048828125 C171.0449981689453,-157.88800048828125 -171.04400634765625,-157.88800048828125 -171.04400634765625,-157.88800048828125 C-192.81100463867188,-157.88800048828125 -210.51699829101562,-140.1820068359375 -210.51699829101562,-118.41600036621094 C-210.51699829101562,-118.41600036621094 -210.51699829101562,118.41600036621094 -210.51699829101562,118.41600036621094 C-210.51699829101562,140.1820068359375 -192.81100463867188,157.88800048828125 -171.04400634765625,157.88800048828125 C-171.04400634765625,157.88800048828125 171.0449981689453,157.88800048828125 171.0449981689453,157.88800048828125 C192.81199645996094,157.88800048828125 210.51699829101562,140.1820068359375 210.51699829101562,118.41600036621094 C210.51699829101562,118.41600036621094 210.51699829101562,-118.41600036621094 210.51699829101562,-118.41600036621094 C210.51699829101562,-140.1820068359375 192.81199645996094,-157.88800048828125 171.0449981689453,-157.88800048828125z M171.0449981689453,-131.572998046875 C172.83299255371094,-131.572998046875 174.5330047607422,-131.20199584960938 176.08799743652344,-130.55499267578125 C176.08799743652344,-130.55499267578125 0,22.06100082397461 0,22.06100082397461 C0,22.06100082397461 -176.08799743652344,-130.55499267578125 -176.08799743652344,-130.55499267578125 C-174.53399658203125,-131.2010040283203 -172.83299255371094,-131.572998046875 -171.0449981689453,-131.572998046875 C-171.0449981689453,-131.572998046875 171.0449981689453,-131.572998046875 171.0449981689453,-131.572998046875z M171.0449981689453,131.572998046875 C171.0449981689453,131.572998046875 -171.04400634765625,131.572998046875 -171.04400634765625,131.572998046875 C-178.3040008544922,131.572998046875 -184.20199584960938,125.6760025024414 -184.20199584960938,118.41500091552734 C-184.20199584960938,118.41500091552734 -184.20199584960938,-102.75299835205078 -184.20199584960938,-102.75299835205078 C-184.20199584960938,-102.75299835205078 -8.621999740600586,49.41699981689453 -8.621999740600586,49.41699981689453 C-6.142000198364258,51.5620002746582 -3.071000099182129,52.62900161743164 0,52.62900161743164 C3.071000099182129,52.62900161743164 6.142000198364258,51.5629997253418 8.621999740600586,49.41699981689453 C8.621999740600586,49.41699981689453 184.2030029296875,-102.75299835205078 184.2030029296875,-102.75299835205078 C184.2030029296875,-102.75299835205078 184.2030029296875,118.41600036621094 184.2030029296875,118.41600036621094 C184.20199584960938,125.6760025024414 178.30499267578125,131.572998046875 171.0449981689453,131.572998046875z"></path></g></g></g></svg>